<svg width="1280" height="832"  fill="none" xmlns="http://www.w3.org/2000/svg">
<path fill-rule="evenodd" clip-rule="evenodd" d="M1280 0H0V832H1280V0ZM328.872 13.9148C181.445 6.04275 70.0937 0.0970535 43.1846 24.0968C19.684 45.0565 29.7176 105.154 42.2882 180.447C52.5181 241.719 64.4281 313.055 61.3125 381.551C58.567 441.91 51.7031 501.74 45.4111 556.585C31.6597 676.451 20.6396 772.508 61.3128 798.252C96.5356 820.545 204.801 814.807 344.7 807.393C440.265 802.328 550.592 796.48 662.479 798.252C835.774 788.606 973.717 797.752 1073.31 804.354C1167.45 810.595 1227.33 814.565 1250.42 798.252C1279.5 777.708 1272.06 706.284 1262.48 614.257C1256.4 555.895 1249.46 489.247 1250.42 422.036C1251.22 365.999 1256.17 306.529 1260.79 250.956C1269.86 141.788 1277.69 47.653 1250.42 24.0968C1224.59 1.78957 1089.11 7.8325 923.763 15.2072C825.621 19.5846 716.958 24.4312 614.464 24.0968C513.385 23.767 414.975 18.5123 328.872 13.9148Z" fill="#DFD9CD"/>
<path fill-rule="evenodd" clip-rule="evenodd" d="M42.3502 25C34.1283 53.8054 42.4278 103.516 52.2882 162.576C62.5181 223.848 74.4281 295.184 71.3125 363.68C68.567 424.039 61.7031 483.869 55.4111 538.714C41.6597 658.58 30.6396 754.637 71.3128 780.381C106.536 802.674 214.801 796.936 354.7 789.522H354.701C450.266 784.457 560.592 778.61 672.479 780.381C845.774 770.736 983.717 779.881 1083.31 786.484C1177.45 792.724 1237.33 796.694 1260.42 780.381C1262.14 779.165 1263.73 777.772 1265.2 776.206C1261.96 786.09 1257.17 793.609 1250.42 798.381C1227.33 814.694 1167.45 810.724 1073.31 804.484C973.717 797.881 835.774 788.736 662.479 798.381C550.592 796.61 440.265 802.457 344.7 807.522C204.801 814.936 96.5356 820.674 61.3128 798.381C20.6396 772.637 31.6597 676.58 45.4111 556.714C51.7031 501.869 58.567 442.039 61.3125 381.68C64.4281 313.184 52.5181 241.848 42.2882 180.576C29.869 106.19 19.926 46.6351 42.3502 25Z" fill="#465A50"/>
</svg>
