<svg width="1280" height="833" fill="none" xmlns="http://www.w3.org/2000/svg">
<path fill-rule="evenodd" clip-rule="evenodd" d="M1280 0H0V832H1280V0ZM328.872 13.9148C181.445 6.04275 70.0937 0.0970535 43.1846 24.0968C19.684 45.0565 29.7176 105.154 42.2882 180.447C52.5181 241.719 64.4281 313.055 61.3125 381.551C58.567 441.91 51.7031 501.74 45.4111 556.585C31.6597 676.451 20.6396 772.508 61.3128 798.252C96.5356 820.545 204.801 814.807 344.7 807.393C440.265 802.328 550.592 796.48 662.479 798.252C835.774 788.606 973.717 797.752 1073.31 804.354C1167.45 810.595 1227.33 814.565 1250.42 798.252C1279.5 777.708 1272.06 706.284 1262.48 614.257C1256.4 555.895 1249.46 489.247 1250.42 422.036C1251.22 365.999 1256.17 306.529 1260.79 250.956C1269.86 141.788 1277.69 47.653 1250.42 24.0968C1224.59 1.78957 1089.11 7.8325 923.763 15.2072C825.621 19.5846 716.958 24.4312 614.464 24.0968C513.385 23.767 414.975 18.5123 328.872 13.9148Z" fill="#ece7dd"/>
<path fill-rule="evenodd" clip-rule="evenodd" d="M32.3502 43C24.1283 71.8054 32.4278 121.516 42.2882 180.576C52.5181 241.848 64.4281 313.184 61.3125 381.68C58.567 442.039 51.7031 501.869 45.4111 556.714C31.6597 676.58 20.6396 772.638 61.3128 798.381C96.5356 820.674 204.801 814.936 344.7 807.522H344.701C440.266 802.457 550.592 796.61 662.479 798.381C835.774 788.736 973.717 797.881 1073.31 804.484C1167.45 810.724 1227.33 814.694 1250.42 798.381C1252.14 797.165 1253.73 795.772 1255.2 794.206C1251.96 804.09 1247.17 811.609 1240.42 816.381C1217.33 832.694 1157.45 828.724 1063.31 822.484C963.717 815.881 825.774 806.736 652.479 816.381C540.592 814.61 430.265 820.457 334.7 825.522C194.801 832.936 86.5356 838.674 51.3128 816.381C10.6396 790.638 21.6597 694.58 35.4111 574.714C41.7031 519.869 48.567 460.039 51.3125 399.68C54.4281 331.184 42.5181 259.848 32.2882 198.576C19.869 124.19 9.92597 64.6351 32.3502 43Z" fill="#26322C"/>
</svg>
