<svg width="1280" height="832" fill="none" xmlns="http://www.w3.org/2000/svg">
<path fill-rule="evenodd" clip-rule="evenodd" d="M1280 0H0V832H1280V0ZM328.872 13.9148C181.445 6.04275 70.0937 0.0970535 43.1846 24.0968C19.684 45.0565 29.7176 105.154 42.2882 180.447C52.5181 241.719 64.4281 313.055 61.3125 381.551C58.567 441.91 51.7031 501.74 45.4111 556.585C31.6597 676.451 20.6396 772.508 61.3128 798.252C96.5356 820.545 204.801 814.807 344.7 807.393C440.265 802.328 550.592 796.48 662.479 798.252C835.774 788.606 973.717 797.752 1073.31 804.354C1167.45 810.595 1227.33 814.565 1250.42 798.252C1279.5 777.708 1272.06 706.284 1262.48 614.257C1256.4 555.895 1249.46 489.247 1250.42 422.036C1251.22 365.999 1256.17 306.529 1260.79 250.956C1269.86 141.788 1277.69 47.653 1250.42 24.0968C1224.59 1.78957 1089.11 7.8325 923.763 15.2072C825.621 19.5846 716.958 24.4312 614.464 24.0968C513.385 23.767 414.975 18.5123 328.872 13.9148Z" fill="#DFD9CD"/>
<path fill-rule="evenodd" clip-rule="evenodd" d="M33.3502 42C25.1283 70.8054 33.4278 120.516 43.2882 179.576C53.5181 240.848 65.4281 312.184 62.3125 380.68C59.567 441.039 52.7031 500.869 46.4111 555.714C32.6597 675.58 21.6396 771.638 62.3128 797.381C97.5356 819.674 205.801 813.936 345.7 806.522H345.701C441.266 801.457 551.592 795.61 663.479 797.381C836.774 787.736 974.717 796.881 1074.31 803.484C1168.45 809.724 1228.33 813.694 1251.42 797.381C1253.14 796.165 1254.73 794.772 1256.2 793.206C1252.96 803.09 1248.17 810.609 1241.42 815.381C1218.33 831.694 1158.45 827.724 1064.31 821.484C964.717 814.881 826.774 805.736 653.479 815.381C541.592 813.61 431.265 819.457 335.7 824.522C195.801 831.936 87.5356 837.674 52.3128 815.381C11.6396 789.638 22.6597 693.58 36.4111 573.714C42.7031 518.869 49.567 459.039 52.3125 398.68C55.4281 330.184 43.5181 258.848 33.2882 197.576C20.869 123.19 10.926 63.6351 33.3502 42Z" fill="#465A50"/>
</svg>
