<svg width="1280" height="835" fill="none" xmlns="http://www.w3.org/2000/svg">
<path fill-rule="evenodd" clip-rule="evenodd" d="M1280 0H0V832H1280V0ZM328.872 13.9148C181.445 6.04275 70.094 0.0970535 43.1848 24.0968C19.6842 45.0565 29.7178 105.154 42.2884 180.447C52.5183 241.719 64.4283 313.055 61.3127 381.551C58.5672 441.91 51.7033 501.74 45.4113 556.585C31.6599 676.451 20.6398 772.508 61.3131 798.252C96.5358 820.545 204.802 814.807 344.7 807.393C440.266 802.328 550.592 796.48 662.48 798.252C835.774 788.606 973.717 797.752 1073.31 804.354C1167.45 810.595 1227.33 814.565 1250.42 798.252C1279.5 777.708 1272.06 706.284 1262.48 614.257C1256.4 555.895 1249.46 489.247 1250.42 422.036C1251.22 365.999 1256.17 306.529 1260.79 250.956C1269.86 141.788 1277.69 47.653 1250.42 24.0968C1224.59 1.78957 1089.11 7.8325 923.763 15.2072C825.621 19.5846 716.959 24.4312 614.464 24.0968C513.385 23.767 414.975 18.5123 328.872 13.9148Z" fill="#465A50"/>
<path fill-rule="evenodd" clip-rule="evenodd" d="M31.3504 45C23.1285 73.8054 31.428 123.516 41.2884 182.576C51.5183 243.848 63.4283 315.184 60.3127 383.68C57.5672 444.039 50.7033 503.869 44.4113 558.714C30.6599 678.58 19.6398 774.637 60.3131 800.381C95.5358 822.674 203.802 816.936 343.7 809.522H343.701C439.266 804.457 549.592 798.61 661.48 800.381C834.774 790.735 972.717 799.881 1072.31 806.484C1166.45 812.724 1226.33 816.694 1249.42 800.381C1251.14 799.165 1252.73 797.771 1254.2 796.206C1250.96 806.09 1246.17 813.608 1239.42 818.381C1216.33 834.694 1156.45 830.724 1062.31 824.484C962.717 817.881 824.774 808.735 651.48 818.381C539.592 816.61 429.266 822.457 333.7 827.522C193.802 834.936 85.5359 840.674 50.3131 818.381C9.63984 792.637 20.6599 696.58 34.4113 576.714C40.7034 521.869 47.5673 462.039 50.3128 401.68C53.4283 333.184 41.5183 261.848 31.2885 200.576C18.8692 126.19 8.92622 66.6351 31.3504 45Z" fill="#F1F320"/>
</svg>
